<?xml version="1.0" encoding="utf-8"?>
<!-- Generator: Adobe Illustrator 22.1.0, SVG Export Plug-In . SVG Version: 6.00 Build 0)  -->
<svg version="1.1" id="图层_1" xmlns="http://www.w3.org/2000/svg" xmlns:xlink="http://www.w3.org/1999/xlink" x="0px" y="0px"
	 viewBox="0 0 210.9 200" style="enable-background:new 0 0 210.9 200;" xml:space="preserve">
<style type="text/css">
	.st0{fill:#ff9800;}
</style>
<path class="st0" d="M210.5,111.3c0-3.4-3.8-5.7-6.4-5.7c-2.5,0-3.8,1.1-5.1,3.4c-12.8,18.2-29,28.1-53.3,26.9v-21.6
	c0-3.4-2.6-5.7-6.4-5.7c-2.6,0-3.8,1.1-5.1,2.3l-35.4,35c-2.5,2.3-5.1,4.6-5.1,8s1.3,5.7,3.8,8l35.4,34.4c1.3,1.1,2.6,2.3,5.1,2.3
	c3.8,0,7.6-3.4,7.6-6.8v-18.2C210.8,170.1,209.2,121.5,210.5,111.3L210.5,111.3z"/>
<path class="st0" d="M85.4,181.7H40.2v-117l65-46.6l64.6,46.6v26.9H186v-12h19.8c3.8,0,5.5-5.1,2.4-7.3L109.8,1.6
	c-2.7-2.1-6.5-2.2-9.3-0.2L1.7,72.2c-3.2,2.2-1.6,7.3,2.4,7.3H24v114.4c0,2.2,1.8,4.1,4,4.1h57.3L85.4,181.7L85.4,181.7z"/>
</svg>
