<?xml version="1.0" encoding="utf-8"?>
<!-- Generator: Adobe Illustrator 22.1.0, SVG Export Plug-In . SVG Version: 6.00 Build 0)  -->
<svg version="1.1" id="图层_1" xmlns="http://www.w3.org/2000/svg" xmlns:xlink="http://www.w3.org/1999/xlink" x="0px" y="0px"
	 viewBox="0 0 210.9 200" style="enable-background:new 0 0 210.9 200;" xml:space="preserve">
<style type="text/css">
	.st0{fill:#FFFFFF;}
</style>
<path class="st0" d="M188.9,5.5H23.2C10.9,5.5,1,15.4,1,27.7v144.7c0,12.3,9.9,22.2,22.2,22.2h80c5.9,0,10.4-4.7,10.4-10.4
	c0-5.7-4.7-10.4-10.4-10.4h-80c-0.7,0-1.2-0.5-1.2-1.2V68.3h178.5c5.9,0,10.4-4.7,10.4-10.4V27.5C211.1,15.4,201.2,5.5,188.9,5.5z
	 M190.1,47.5H22v-20c0-0.7,0.5-1.2,1.2-1.2h165.7c0.7,0,1.2,0.5,1.2,1.2V47.5z"/>
<path class="st0" d="M197.3,155.9c7.6-5.4,7.6-14.1,0-19.5l-48.2-34.5c-7.6-5.4-13.6-2.2-13.6,7.1v74.1c0,9.2,6.2,12.4,13.6,7.1
	L197.3,155.9L197.3,155.9z"/>
</svg>
