<?xml version="1.0" encoding="utf-8"?>
<!-- Generator: Adobe Illustrator 22.1.0, SVG Export Plug-In . SVG Version: 6.00 Build 0)  -->
<svg version="1.1" id="图层_1" xmlns="http://www.w3.org/2000/svg" xmlns:xlink="http://www.w3.org/1999/xlink" x="0px" y="0px"
	 viewBox="0 0 210.9 200" style="enable-background:new 0 0 210.9 200;" xml:space="preserve">
<style type="text/css">
	.st0{fill:#ff9800;}
</style>
<path class="st0" d="M14.4,0.3v199H35V17.2h141v182.1h20.6V0.3H14.4z"/>
<path class="st0" d="M158.6,37.3H53.5c-4,0-7.1,2.8-7.1,6.4v40.4c0,3.5,3.3,6.3,7.1,6.3h105.1c4,0,7.1-2.8,7.1-6.3V43.6
	C165.7,40.1,162.6,37.3,158.6,37.3z M76.6,76.9c0,1.5-1.5,2.6-3.3,2.6s-3.3-1.2-3.3-2.6V50.6c0-1.5,1.5-2.6,3.3-2.6s3.3,1.2,3.3,2.6
	V76.9z M97.7,76.9c0,1.5-1.5,2.6-3.3,2.6s-3.3-1.2-3.3-2.6V50.6c0-1.5,1.5-2.6,3.3-2.6s3.3,1.2,3.3,2.6V76.9z M118.9,76.9
	c0,1.5-1.5,2.6-3.3,2.6s-3.3-1.2-3.3-2.6V50.6c0-1.5,1.5-2.6,3.3-2.6s3.3,1.2,3.3,2.6V76.9z M140,76.9c0,1.5-1.5,2.6-3.3,2.6
	c-1.8,0-3.3-1.2-3.3-2.6V50.6c0-1.5,1.5-2.6,3.3-2.6c1.8,0,3.3,1.2,3.3,2.6V76.9z M160.7,153.2H51.4c-2.8,0-5,2-5,4.5
	c0,2.5,2.3,4.5,5,4.5h109.2c2.8,0,5-2,5-4.5C165.7,155.2,163.5,153.2,160.7,153.2 M158.6,95.3H53.5c-4,0-7.1,2.8-7.1,6.3V142
	c0,3.5,3.2,6.3,7.1,6.3h105.1c4,0,7.1-2.8,7.1-6.3v-40.4C165.7,98.2,162.6,95.3,158.6,95.3z M76.6,135c0,1.5-1.5,2.6-3.3,2.6
	s-3.3-1.2-3.3-2.6v-26.3c0-1.5,1.5-2.6,3.3-2.6s3.3,1.2,3.3,2.6V135z M97.7,135c0,1.5-1.5,2.6-3.3,2.6s-3.3-1.2-3.3-2.6v-26.3
	c0-1.5,1.5-2.6,3.3-2.6s3.3,1.2,3.3,2.6V135z M118.9,135c0,1.5-1.5,2.6-3.3,2.6s-3.3-1.2-3.3-2.6v-26.3c0-1.5,1.5-2.6,3.3-2.6
	s3.3,1.2,3.3,2.6V135z M140,135c0,1.5-1.5,2.6-3.3,2.6c-1.8,0-3.3-1.2-3.3-2.6v-26.3c0-1.5,1.5-2.6,3.3-2.6c1.8,0,3.3,1.2,3.3,2.6
	V135z"/>
</svg>
