<?xml version="1.0" encoding="utf-8"?>
<!-- Generator: Adobe Illustrator 22.1.0, SVG Export Plug-In . SVG Version: 6.00 Build 0)  -->
<svg version="1.1" id="图层_1" xmlns="http://www.w3.org/2000/svg" xmlns:xlink="http://www.w3.org/1999/xlink" x="0px" y="0px"
	 viewBox="0 0 210.9 200" style="enable-background:new 0 0 210.9 200;" xml:space="preserve">
<style type="text/css">
	.st0{fill:#ff9800;}
</style>
<g>
	<path class="st0" d="M110,102.9V73.2h-8.3v29.9c-6.1,1.9-10.6,7.7-10.6,14.4c0,6.7,4.5,12.5,10.6,14.4v6.1h8.3v-6
		c2.6-0.6,4.9-2,6.7-4c2.9-2.9,4.4-6.6,4.4-10.7C121.2,110.5,116.5,104.6,110,102.9z M109,105.6v23.7c-0.2,0-0.4,0-0.6,0l0,0
		c-0.4,0-5.1,0-5.6-0.1v-23.6C103.3,105.6,108.3,105.6,109,105.6z"/>
	<path class="st0" d="M171,66.2l17-18.2l-14-13.9l-17.3,17.7c-11.5-9.1-25.4-15.2-40.7-17.2V19h11.2V0.1H84.5V19h11.3v15.6
		C54.7,39.4,22.6,74.5,22.6,117c0,45.7,37.2,82.9,82.9,82.9s82.9-37.2,82.9-82.9C188.3,97.9,181.8,80.3,171,66.2z M105.4,183.4
		C68.8,183.4,39,153.6,39,117s29.8-66.4,66.4-66.4s66.4,29.8,66.4,66.4S142.1,183.4,105.4,183.4z"/>
</g>
</svg>
