<?xml version="1.0" encoding="utf-8"?>
<!-- Generator: Adobe Illustrator 22.1.0, SVG Export Plug-In . SVG Version: 6.00 Build 0)  -->
<svg version="1.1" id="图层_1" xmlns="http://www.w3.org/2000/svg" xmlns:xlink="http://www.w3.org/1999/xlink" x="0px" y="0px"
	 viewBox="0 0 210.9 200" style="enable-background:new 0 0 210.9 200;" xml:space="preserve">
<style type="text/css">
	.st0{fill:#FFFFFF;}
</style>
<path class="st0" d="M190.2,84.7v85.8c0,4.9-4,9.1-9.1,9.1H29.8c-4.9,0-9.1-4-9.1-9.1V84.7H0.5v85.8c0,16.2,13.2,29.3,29.3,29.3
	h151.3c16.2,0,29.3-13.2,29.3-29.3V84.7H190.2L190.2,84.7z"/>
<path class="st0" d="M87.5,154.1c8,0,11.5,1.3,15.9,2.7c5.3,1.8,11.8,4,23.6,4s18.3-2.2,23.6-4c4.5-1.6,8-2.7,15.9-2.7v-23.7
	c-11.8,0-18.3,2.2-23.6,4c-4.5,1.6-8,2.7-15.9,2.7s-11.5-1.3-15.9-2.7c-5.3-1.8-11.8-4-23.6-4s-18.3,2.2-23.6,4
	c-4.5,1.6-8,2.7-15.9,2.7V161c11.8,0,18.3-2.2,23.6-4C76,155.4,79.5,154.1,87.5,154.1z M87.5,116.9c8,0,11.5,1.3,15.9,2.7
	c5.3,1.8,11.8,4,23.6,4s18.3-2.2,23.6-4c4.5-1.6,8-2.7,15.9-2.7V93.2c-11.8,0-18.3,2.2-23.6,4c-4.5,1.6-8,2.7-15.9,2.7
	s-11.5-1.3-15.9-2.7c-5.3-1.8-11.8-4-23.6-4s-18.3,2.2-23.6,4c-4.5,1.6-8,2.7-15.9,2.7v23.7c11.8,0,18.3-2.2,23.6-4
	C76,118.2,79.5,116.9,87.5,116.9z M88.6,78H119V64.5h23.7L105.6,0.2L68.4,64.5h20.2V78z"/>
</svg>
