<?xml version="1.0" encoding="utf-8"?>
<!-- Generator: Adobe Illustrator 22.1.0, SVG Export Plug-In . SVG Version: 6.00 Build 0)  -->
<svg version="1.1" id="图层_1" xmlns="http://www.w3.org/2000/svg" xmlns:xlink="http://www.w3.org/1999/xlink" x="0px" y="0px"
	 viewBox="0 0 210.9 200" style="enable-background:new 0 0 210.9 200;" xml:space="preserve">
<style type="text/css">
	.st0{fill:#FFFFFF;}
</style>
<path class="st0" d="M109.8,18.2c45.1,0,81.8,36.7,81.8,81.8s-36.7,81.8-81.8,81.8S28,145.1,28,100S64.7,18.2,109.8,18.2 M109.8,0
	C54.6,0,9.8,44.8,9.8,100s44.8,100,100,100s100-44.8,100-100S165.1,0,109.8,0z"/>
<path class="st0" d="M160.4,109.1H59.2c-5,0-9.1-4.1-9.1-9.1s4.1-9.1,9.1-9.1h101.1c5,0,9.1,4.1,9.1,9.1S165.4,109.1,160.4,109.1z"
	/>
</svg>
