<?xml version="1.0" standalone="no"?><!DOCTYPE svg PUBLIC "-//W3C//DTD SVG 1.1//EN" "http://www.w3.org/Graphics/SVG/1.1/DTD/svg11.dtd"><svg t="1527151665155" class="icon" style="" viewBox="0 0 1024 1024" version="1.1" xmlns="http://www.w3.org/2000/svg" p-id="9560" xmlns:xlink="http://www.w3.org/1999/xlink" width="40" height="40"><defs><style type="text/css"></style></defs><path d="M477.184 116.736c0-18.944 15.36-34.816 34.816-34.816 18.944 0 34.816 15.36 34.816 34.816v92.16c0 18.944-15.36 34.816-34.816 34.816-18.944 0-34.816-15.36-34.816-34.816v-92.16z m-238.08 229.888c16.384 9.728 22.528 30.72 12.8 47.616-9.728 16.384-30.72 22.016-47.616 12.8l-79.872-46.08c-16.384-9.728-22.528-30.72-12.8-47.616 9.728-16.384 30.72-22.016 47.616-12.8-0.512 0 79.872 46.08 79.872 46.08z" fill="#ffffff" p-id="9561"></path><path d="M239.104 346.624c16.384 9.728 22.528 30.72 12.8 47.616-9.728 16.384-30.72 22.016-47.616 12.8l-79.872-46.08c-16.384-9.728-22.528-30.72-12.8-47.616 9.728-16.384 30.72-22.016 47.616-12.8-0.512 0 79.872 46.08 79.872 46.08z m135.168-110.08c9.728 16.384 4.096 37.888-12.8 47.616-16.384 9.728-37.888 4.096-47.616-12.8l-46.08-79.872c-9.728-16.384-4.096-37.888 12.8-47.616 16.384-9.728 37.888-4.096 47.616 12.8l46.08 79.872z" fill="#ffffff" p-id="9562"></path><path d="M374.272 236.544c9.728 16.384 4.096 37.888-12.8 47.616-16.384 9.728-37.888 4.096-47.616-12.8l-46.08-79.872c-9.728-16.384-4.096-37.888 12.8-47.616 16.384-9.728 37.888-4.096 47.616 12.8l46.08 79.872z m335.36 34.816c-9.728 16.384-30.72 22.528-47.616 12.8-16.384-9.728-22.016-30.72-12.8-47.616l46.08-79.872c9.728-16.384 30.72-22.528 47.616-12.8 16.384 9.728 22.016 30.72 12.8 47.616l-46.08 79.872z" fill="#ffffff" p-id="9563"></path><path d="M709.632 271.36c-9.728 16.384-30.72 22.528-47.616 12.8-16.384-9.728-22.016-30.72-12.8-47.616l46.08-79.872c9.728-16.384 30.72-22.528 47.616-12.8 16.384 9.728 22.016 30.72 12.8 47.616l-46.08 79.872z m110.08 135.168c-16.384 9.728-37.888 4.096-47.616-12.8-9.728-16.384-4.096-37.888 12.8-47.616l79.872-46.08c16.384-9.728 37.888-4.096 47.616 12.8 9.728 16.384 4.096 37.888-12.8 47.616l-79.872 46.08zM512 243.712c19.456 0 34.816-15.36 34.816-34.816v-92.16c0-18.944-15.36-34.816-34.816-34.816s-34.816 15.36-34.816 34.816v92.16c0 19.456 15.36 34.816 34.816 34.816zM720.384 521.216c0-115.2-93.184-208.384-207.872-208.384-115.2 0-207.872 93.184-207.872 208.384v254.464h416.256v-254.464z m-68.608 168.448L512 605.184l-139.776 84.48v-159.744l139.776 75.264 139.776-75.264v159.744zM742.912 821.76h-462.336c-25.6 0-46.592 20.992-46.592 46.08 0 25.6 20.992 46.08 46.592 46.08h462.336c25.6 0 46.592-20.992 46.592-46.08 0-25.6-20.992-46.08-46.592-46.08z" fill="#ffffff" p-id="9564"></path></svg>