<?xml version="1.0" encoding="utf-8"?>
<!-- Generator: Adobe Illustrator 22.1.0, SVG Export Plug-In . SVG Version: 6.00 Build 0)  -->
<svg version="1.1" id="图层_1" xmlns="http://www.w3.org/2000/svg" xmlns:xlink="http://www.w3.org/1999/xlink" x="0px" y="0px"
	 viewBox="0 0 210.9 200" style="enable-background:new 0 0 210.9 200;" xml:space="preserve">
<style type="text/css">
	.st0{fill:#FE6668;}
</style>
<path class="st0" d="M110.2,0.6c-40.8,0-73.8,33.1-73.8,73.8s73.8,123,73.8,123s73.8-82.2,73.8-123S150.9,0.6,110.2,0.6z
	 M110.2,134.4c-33.1,0-60-26.9-60-60s26.9-60,60-60s60,26.9,60,60S143.3,134.4,110.2,134.4z"/>
<path class="st0" d="M75.8,103.3l7.8,4.3c3.3-7.3,6.9-15.9,9.9-24l-6.9-4.5C83.2,88,78.9,97.5,75.8,103.3z"/>
<path class="st0" d="M91,66.1c-2.6-2.3-7.9-5.3-11.9-7l-4.4,6.6c4.1,2,9.3,5.3,11.8,7.7L91,66.1z"/>
<path class="st0" d="M82.4,39.1l-4.6,6.4c4.1,2.3,9.3,5.7,11.5,8.4l5-7C91.7,44.3,86.5,41.2,82.4,39.1z"/>
<path class="st0" d="M138.2,39.7h-8.4v7.5h-6.4v-8.1H115v8.1h-5.8v-7.5h-8.4v7.5h-6.5v7.9h6.5v7.5h8.4v-7.5h5.8v7h8.4v-7h6.4v7.5
	h8.4v-7.5h7.2v-7.9h-7.2V39.7z"/>
<path class="st0" d="M94.5,81.7h5.3v22h8.3V88.2h7v20.5h8.5V88.3h7.6v7.3c0,0.8-0.2,0.9-1,0.9c-0.8,0.1-3,0.1-5.1-0.1
	c0.9,2.2,1.8,5.2,2,7.5c4.1,0,7.1-0.1,9.5-1.3c2.4-1.2,2.9-3.3,2.9-6.9v-14h5.1V66H94.6C94.6,66,94.6,81.7,94.5,81.7z M123.5,73.6
	h12.4v7.1h-12.4C123.5,80.7,123.5,73.6,123.5,73.6z M102.8,73.6H115v7.1h-12.2V73.6z"/>
</svg>
