<?xml version="1.0" encoding="utf-8"?>
<!-- Generator: Adobe Illustrator 22.1.0, SVG Export Plug-In . SVG Version: 6.00 Build 0)  -->
<svg version="1.1" id="图层_1" xmlns="http://www.w3.org/2000/svg" xmlns:xlink="http://www.w3.org/1999/xlink" x="0px" y="0px"
	 viewBox="0 0 210.9 200" style="enable-background:new 0 0 210.9 200;" xml:space="preserve">
<style type="text/css">
	.st0{fill:#FFFFFF;}
</style>
<path class="st0" d="M45.4,131.7H22.8v-28.4l-21.8-4v91.2l21.8-7.3v-31.7h35L77,125.7l-25.2-13.2L45.4,131.7L45.4,131.7z M159,137.7
	l50.8-32.3L51.3,0.9H32.8L7.7,40.5v13.2l139.4,84.6h11.9L159,137.7L159,137.7z M139.9,144.2L19.6,66.3L7,79.5l139.4,84.6H159
	l6.7-6.7l6.7-19.1c0,0-18.5,13.2-19.1,13.2C145.8,146.9,139.9,144.2,139.9,144.2L139.9,144.2z"/>
</svg>
