<?xml version="1.0" encoding="utf-8"?>
<!-- Generator: Adobe Illustrator 22.1.0, SVG Export Plug-In . SVG Version: 6.00 Build 0)  -->
<svg version="1.1" id="图层_1" xmlns="http://www.w3.org/2000/svg" xmlns:xlink="http://www.w3.org/1999/xlink" x="0px" y="0px"
	 viewBox="0 0 210.9 200" style="enable-background:new 0 0 210.9 200;" xml:space="preserve">
<style type="text/css">
	.st0{fill:#FE6668;}
</style>
<path class="st0" d="M199.9,46.9H11.3c-5.5,0-10,4.4-10,10v100.2c0,5.5,4.4,10,10,10h188.6c5.5,0,10-4.4,10-10V56.9
	C209.9,51.3,205.4,46.9,199.9,46.9L199.9,46.9z M12.5,156.1V58h186.4v98H12.5z"/>
<path class="st0" d="M182.1,144.8V69.2c0-1.8-1.5-3.3-3.3-3.3c-1.8,0-3.3,1.5-3.3,3.3v75.6c0,1.8,1.5,3.3,3.3,3.3
	C180.6,148.1,182.1,146.6,182.1,144.8z M158.1,144.8V69.2c0-1.8-1.5-3.3-3.3-3.3c-1.8,0-3.3,1.5-3.3,3.3v75.6c0,1.8,1.5,3.3,3.3,3.3
	C156.6,148.1,158.1,146.6,158.1,144.8z M134.1,144.8V69.2c0-1.8-1.5-3.3-3.3-3.3c-1.8,0-3.3,1.5-3.3,3.3v75.6c0,1.8,1.5,3.3,3.3,3.3
	C132.6,148.1,134.1,146.6,134.1,144.8z M110,144.8V69.2c0-1.8-1.5-3.3-3.3-3.3s-3.3,1.5-3.3,3.3v75.6c0,1.8,1.5,3.3,3.3,3.3
	S110,146.6,110,144.8z M86,144.8V69.2c0-1.8-1.5-3.3-3.3-3.3s-3.3,1.5-3.3,3.3v75.6c0,1.8,1.5,3.3,3.3,3.3S86,146.6,86,144.8z
	 M62,144.8V69.2c0-1.8-1.5-3.3-3.3-3.3c-1.8,0-3.3,1.5-3.3,3.3v75.6c0,1.8,1.5,3.3,3.3,3.3C60.5,148.1,62,146.6,62,144.8z
	 M36.1,144.8V69.2c0-1.8-1.5-3.3-3.3-3.3s-3.3,1.5-3.3,3.3v75.6c0,1.8,1.5,3.3,3.3,3.3S36.1,146.6,36.1,144.8z"/>
<path class="st0" d="M71.9,107c0,18.6,15,33.7,33.7,33.7s33.7-15,33.7-33.7l0,0c0-18.6-15-33.7-33.7-33.7S71.9,88.3,71.9,107
	L71.9,107z"/>
</svg>
