<?xml version="1.0" encoding="utf-8"?>
<!-- Generator: Adobe Illustrator 22.1.0, SVG Export Plug-In . SVG Version: 6.00 Build 0)  -->
<svg version="1.1" id="图层_1" xmlns="http://www.w3.org/2000/svg" xmlns:xlink="http://www.w3.org/1999/xlink" x="0px" y="0px"
	 viewBox="0 0 210.9 200" style="enable-background:new 0 0 210.9 200;" xml:space="preserve">
<style type="text/css">
	.st0{fill:#FE6668;}
</style>
<path class="st0" d="M71.2,60.7C47.2,65.3,24.7,76.7,4.5,87c11.8,25.2,30.4,49.6,35.2,75.6c10.2,4.5,23.3,6.7,33.9,7.1
	C75,137.8,73.8,101.2,71.2,60.7z M197.6,135.5h11.8v34.9h-50.5v-18.6h-18v-16.4H197.6L197.6,135.5z M30.8,21.5V31h7.3v31
	c13.1-5.3,24.7-8.3,38.5-10.9c14,2.6,25.3,5.6,38.6,11.2V31h6.8v-9.5L30.8,21.5z M62.2,44.4H42.5v-9.5h19.7V44.4z M86.2,44.4H66.6
	v-9.5h19.6V44.4z M110.2,44.4H90.5v-9.5h19.7V44.4z M21.6,170.1c10.2,5.7,21.3,5.6,33.2,0c13.9,7.7,28.8,7.6,44.7,0
	c11.9,5.6,22.9,5.7,33.2,0c0.1,0.5,0.2,0.9,0.3,1.5c-5.5,12.5-27.7,12.5-33.5,0.6v0.7c-7.6,16-37.1,16.1-44.9-0.3
	c-5.9,11.5-27.6,11.4-33.2-0.8c-3.5,6.4-15.7,6.2-18.8-0.8c0.1-0.3,0.1-0.5,0.2-0.8C8.7,173.5,15,173.4,21.6,170.1z M133.2,170.1
	c-0.1,0.3-0.1,0.5-0.2,0.8c3.1,7,15.5,7.1,19,0.5c0,0.1,0.1,0.1,0.1,0.2v-1.6C145.3,173.4,139.1,173.5,133.2,170.1L133.2,170.1z
	 M103.1,99.5c-0.9,0-1.8,0.8-1.8,1.8c0,0.9,0.7,1.8,1.8,1.8c0.9,0,1.8-0.8,1.8-1.8C104.9,100.4,104,99.5,103.1,99.5z M81.4,60.4
	c-2.6,36.7-4.2,73.2-3.4,109.2c10.6-0.6,24.8-3,35.7-7c4.8-26,23.5-50.5,35.2-75.6C127.7,76.9,105.1,64.8,81.4,60.4z M117.8,121.8
	c-0.4,0.1-0.7-0.1-0.9-0.4c-1.1,2.6-2.9,4.6-5.4,6.3c-2.4,1.5-5.1,2.4-7.6,3.5l-0.5,0.2l-0.5-0.2c-2.6-1.1-5.2-2-7.6-3.5
	c-2.5-1.6-4.3-3.5-5.4-6.3c-0.2,0.3-0.5,0.5-0.9,0.4c-0.6-0.1-0.8-0.9-0.9-1.6c-0.1-0.7-0.1-1.5-0.1-2.2v-3l1-0.4
	c0.3,0.2,0.6,0.5,0.9,0.7c0.4,0.4,0.9,0.7,1.4,1.1c0.5,0.5,1.1,0.9,1.7,1.5c0.4,0.4,0.9,1,0.6,1.7c-0.2,0.4-0.7,0.5-1.3,0.5
	c1.8,3,5.9,4.7,9.3,5.4v-15.2h-3.6c-0.4,0.4-1,0.6-1.6,0.6c-1.3,0-2.3-1-2.3-2.3s1-2.3,2.3-2.3c0.7,0,1.5,0.4,1.9,0.9h3.3v-1.9
	c-1.7-0.7-2.7-2.3-2.7-4.2c0-1.5,0.7-2.8,1.9-3.6c-2.8-1.3-4.5-4.4-4-7.8c0.6-4.1,4.2-7,8-6.6c3.9,0.5,6.4,4.2,5.7,8.3
	c-0.4,2.8-2.2,5-4.5,6c1.1,0.8,1.9,2.2,1.9,3.6c0,1.8-1,3.3-2.6,4.1v1.9h3.4c0.4-0.6,1.1-0.9,1.9-0.9c1.3,0,2.3,1,2.3,2.3
	s-1,2.3-2.3,2.3c-0.6,0-1.1-0.2-1.6-0.6h-3.6v15.3c3.4-0.7,7.6-2.4,9.5-5.5c-0.5,0.1-1,0-1.3-0.5c-0.3-0.6,0.3-1.3,0.6-1.7
	c0.5-0.5,1-1,1.7-1.5c0.4-0.4,0.9-0.7,1.4-1.1c0.3-0.2,0.6-0.5,0.9-0.7l1,0.4v3c0,0.7,0,1.5-0.1,2.2
	C118.6,120.8,118.5,121.7,117.8,121.8z"/>
</svg>
