<?xml version="1.0" encoding="utf-8"?>
<!-- Generator: Adobe Illustrator 22.1.0, SVG Export Plug-In . SVG Version: 6.00 Build 0)  -->
<svg version="1.1" id="图层_1" xmlns="http://www.w3.org/2000/svg" xmlns:xlink="http://www.w3.org/1999/xlink" x="0px" y="0px"
	 viewBox="0 0 210.9 200" style="enable-background:new 0 0 210.9 200;" xml:space="preserve">
<style type="text/css">
	.st0{fill:#FFFFFF;}
</style>
<path class="st0" d="M203.8,140.6h-10.1V115v-0.1v-0.2v-30v-0.1V53.9c0-2.6-2.2-4.7-4.8-4.7h-0.1h-36.3V19.6c0-2.6-2.1-4.7-4.8-4.7
	c-2.6,0-4.8,2.1-4.8,4.7v34.2v0.1V54v30.5v0.1v21.8l-18.2-60.6c-0.9-3.5-4.2-5.8-7.6-5.8H57.2c-4.4,0-8.1,3.7-8.1,8.1v0.1v44.3H10.2
	c-4.4,0-8,3.6-8,8v0.2v46c0,4.5,3.6,8.1,8,8.1h0.2h2.1c2.1,5.2,5.4,9.8,9.7,13.2c6.1,5,13.5,7.9,21.8,7.9s15.8-2.9,21.7-7.9
	c4.2-3.5,7.7-8,9.7-13.2H109c2.1,5.2,5.5,9.8,9.8,13.2c5.9,5,13.5,7.9,21.7,7.9c9.2,0,17.7-3.7,23.9-9.9c4.4-4.3,7.5-9.8,8.9-15.7
	H189h0.1H204c2.6,0,4.7-2.1,4.7-4.8C208.7,142.9,206.6,140.6,203.8,140.6z M65.2,100.6V56.1H111l13.4,44.7h-3.2
	c-2.3,0-4.3,1.7-4.8,3.9l-5.7,19.7h-33l-13-20.8C65,102.8,65.2,101.7,65.2,100.6z M153,154.6l-0.1,0.1c-3.2,3.3-7.7,5.2-12.5,5.2
	c-4.4,0-8.4-1.5-11.4-4.1c-3-2.4-5.2-5.9-5.9-9.8c-0.4-4.1-3.9-7.2-8-7.2H69.3c-4,0-7.3,2.8-7.9,6.6c-0.8,4.1-3,7.8-6.2,10.3
	c-3.1,2.6-7,4.1-11.4,4.1s-8.4-1.4-11.4-4.1c-3-2.4-5.2-5.9-5.9-9.8c-0.4-4.1-3.9-7.2-8-7.2h-0.1v-30.1h38.1l14.3,22.7
	c0.8,1.7,2.4,2.6,4.3,2.6h39.4c2.1,0,4.1-1.3,4.6-3.4l5.8-20.1h2.5l2.4,7.9c0.9,3.9,4.5,6.5,8.5,6.2l1.5-0.1h0.2h0.4
	c4.8,0,9.2,2.1,12.5,5.2c3.2,3.2,5.2,7.6,5.2,12.5C158.1,147,156.1,151.4,153,154.6z"/>
</svg>
