<?xml version="1.0" encoding="utf-8"?>
<!-- Generator: Adobe Illustrator 22.1.0, SVG Export Plug-In . SVG Version: 6.00 Build 0)  -->
<svg version="1.1" id="图层_1" xmlns="http://www.w3.org/2000/svg" xmlns:xlink="http://www.w3.org/1999/xlink" x="0px" y="0px"
	 viewBox="0 0 210.9 200" style="enable-background:new 0 0 210.9 200;" xml:space="preserve">
<style type="text/css">
	.st0{fill:#FFFFFF;}
</style>
<path class="st0" d="M181.7,39.9h-16.1V23.8c0-13.1-10.7-23.8-23.8-23.8H29.2C16.1,0,5.4,10.7,5.4,23.8v112.5
	c0,13.1,10.7,23.8,23.8,23.8h16.1v16.1c0,13.1,10.7,23.8,23.8,23.8h112.5c13.1,0,23.8-10.7,23.8-23.8V63.7
	C205.4,50.6,194.8,39.9,181.7,39.9z M151.1,39.9H69c-13.1,0-23.8,10.7-23.8,23.8v82.1h-16c-5.1,0-9.3-4.1-9.3-9.3V23.8
	c0-5.1,4.1-9.3,9.3-9.3h112.5c5.1,0,9.3,4.1,9.3,9.3V39.9z"/>
</svg>
