<?xml version="1.0" encoding="utf-8"?>
<!-- Generator: Adobe Illustrator 22.1.0, SVG Export Plug-In . SVG Version: 6.00 Build 0)  -->
<svg version="1.1" id="图层_1" xmlns="http://www.w3.org/2000/svg" xmlns:xlink="http://www.w3.org/1999/xlink" x="0px" y="0px"
	 viewBox="0 0 210.9 200" style="enable-background:new 0 0 210.9 200;" xml:space="preserve">
<style type="text/css">
	.st0{fill:#FFFFFF;}
</style>
<path class="st0" d="M6.4,66.9c0,0.2,0.1,6.4,6.4,6.4s6.4-6.1,6.4-6.4V27.2c0-7.5,6.1-13.5,13.5-13.5h39.6c0.2,0,6.4-0.1,6.4-6.4
	s-6-6.4-6.4-6.4H32.7C18.2,0.9,6.4,12.8,6.4,27.2V66.9z"/>
<path class="st0" d="M158.4,93.6H52.5c-3.5,0-6.4,2.8-6.4,6.4s2.8,6.4,6.4,6.4h105.9c3.5,0,6.4-2.8,6.4-6.4S161.9,93.6,158.4,93.6z"
	/>
<path class="st0" d="M198.1,73.2c6.3,0,6.4-6.1,6.4-6.4V27.2c0-14.5-11.8-26.3-26.3-26.3h-39.6c-0.2,0-6.4,0.1-6.4,6.4
	s6.1,6.4,6.4,6.4h39.6c7.5,0,13.5,6,13.5,13.5v39.6C191.7,67.2,191.9,73.2,198.1,73.2z"/>
<path class="st0" d="M12.8,126.8c-6.3,0-6.4,6.1-6.4,6.4v39.6c0,14.5,11.8,26.3,26.3,26.3h39.6c0.2,0,6.4-0.1,6.4-6.4
	c0-6.3-6.1-6.4-6.4-6.4H32.7c-7.5,0-13.5-6.1-13.5-13.5v-39.6C19.2,132.8,19,126.8,12.8,126.8z"/>
<path class="st0" d="M204.5,133.1c0-0.2-0.1-6.4-6.4-6.4s-6.4,6.1-6.4,6.4v39.6c0,7.5-6.1,13.5-13.5,13.5h-39.6
	c-0.2,0-6.4,0.1-6.4,6.4c0,6.3,6.1,6.4,6.4,6.4h39.6c14.5,0,26.3-11.8,26.3-26.3V133.1z"/>
</svg>
