<?xml version="1.0" encoding="utf-8"?>
<!-- Generator: Adobe Illustrator 22.1.0, SVG Export Plug-In . SVG Version: 6.00 Build 0)  -->
<svg version="1.1" id="图层_1" xmlns="http://www.w3.org/2000/svg" xmlns:xlink="http://www.w3.org/1999/xlink" x="0px" y="0px"
	 viewBox="0 0 210.9 200" style="enable-background:new 0 0 210.9 200;" xml:space="preserve">
<style type="text/css">
	.st0{fill:#FE6668;}
</style>
<path class="st0" d="M181.6,71.2c6.3,0,11.3-5,11.3-11.3s-5-11.3-11.3-11.3s-11.3,5-11.3,11.3S175.3,71.2,181.6,71.2z M106.6,48.7
	c18.8-1.3,22.5-16.3,23.7-22.5c-1.3-23.7-23.7-25-23.7-25c-13.8,0-23.8,10-23.8,23.8C82.8,39.9,95.3,48.7,106.6,48.7L106.6,48.7z
	 M106.6,12.4c11.2,0,12.5,11.2,12.5,13.8c-1.3,10-11.3,11.3-12.5,11.3c-11.3-0.1-12.5-12.6-12.5-12.6
	C94.1,12.4,106.6,12.4,106.6,12.4z M180.3,124.9c-8.8,0-13.8,7.5-13.8,13.8c0,5,3.8,13.8,13.8,13.8v-10c0,0-3.8,0-3.8-3.8
	c0,0,0-3.8,3.8-3.8c1.3,0,3.8,1.3,3.8,3.8c0,1.3,0,3.8-3.8,3.8v10c0,0,12.5,0,13.8-13.8C195.3,131.2,189.1,124.9,180.3,124.9z
	 M105.3,166.2c-10,0-16.3,8.8-16.3,16.3c0,5,3.8,16.3,16.3,16.3v-12.5c0,0-3.8,0-3.8-3.8c0,0,0-3.8,3.8-3.8c1.3,0,3.8,1.3,3.8,3.8
	c0,1.3,0,3.8-3.8,3.8v12.5c0,0,15,0,16.3-16.3C122.8,173.7,115.3,164.9,105.3,166.2z M150.3,119.9l-27.5-16.3v-3.7h-1.3h1.3v-1.3
	l25-13.8c5-2.5-1.3-12.5-6.3-10L119,87.3c-2.5-1.3-3.8-3.8-6.3-3.8V54.9c0-7.5-11.3-7.5-11.3,0v28.8c-3.8,0-6.3,2.5-8.7,3.8
	l-26.3-15c-5-3.8-11.3,7.5-5,10l27.5,15v1.3c0,1.3,0,3.8,1.3,5l-28.8,17.5c-5,2.5,1.3,12.5,6.3,10l28.8-17.5
	c1.3,1.3,2.5,1.3,3.8,2.5v33.6c0,6.3,11.2,6.3,11.2,0v-35c1.3-1.3,3.8-1.3,5-2.5l27.5,16.3C149,132.4,155.3,122.4,150.3,119.9
	L150.3,119.9z M111.6,99.9c0,3.8-2.5,6.3-6.3,6.3c-2.5,0-6.3-3.8-6.3-6.3c0-6.3,6.3-6.3,6.3-6.3C111.6,93.7,111.6,99.9,111.6,99.9
	h3.8H111.6z M36.6,43.7v11.2c5,0,8.8,5,8.8,10c0,6.3-6.3,8.8-8.8,8.8c-10-1.3-10-10-10-10c1.2-8.8,8.7-8.8,8.7-8.8
	C36.6,49.9,36.6,43.7,36.6,43.7c-12.5,1.3-20,8.7-20,21.3s11.3,20,20,20c20-1.3,21.2-20,20-23.8C52.8,42.4,36.6,43.6,36.6,43.7z
	 M36.6,123.6c-12.5,1.3-17.5,10-17.5,18.8s7.5,17.5,17.5,17.5c17.5-1.3,18.8-17.5,18.8-18.8C52.8,123.6,36.6,123.6,36.6,123.6z
	 M36.6,147.4c-6.3,0-6.3-6.3-6.3-6.3c1.2-6.3,6.3-6.3,6.3-6.3c5,0,6.3,5,6.3,6.3C42.8,147.4,39.1,147.4,36.6,147.4z"/>
</svg>
