<?xml version="1.0" encoding="utf-8"?>
<!-- Generator: Adobe Illustrator 22.1.0, SVG Export Plug-In . SVG Version: 6.00 Build 0)  -->
<svg version="1.1" id="图层_1" xmlns="http://www.w3.org/2000/svg" xmlns:xlink="http://www.w3.org/1999/xlink" x="0px" y="0px"
	 viewBox="0 0 210.9 200" style="enable-background:new 0 0 210.9 200;" xml:space="preserve">
<style type="text/css">
	.st0{fill:#FFFFFF;}
</style>
<path class="st0" d="M191.6,187.4l-15-13.1c-3.8-3.8-8.8-5.6-14.4-5.6s-10.6,2.5-15,6.3l-8.8,8.8c-1.3,1.3-3.1,1.9-5,1.9
	c-1.9,0-3.8-0.6-5-1.9l-8.1-8.9c-3.8-3.8-9.4-6.3-15-6.3s-10.6,1.9-15,6.3l-9.4,9.4c-2.5,2.5-6.9,2.5-9.4,0l-9.4-9.4
	c-3.8-3.8-9.4-6.3-15-6.3s-10.6,1.9-14.4,6.3l-14.4,12.5c-3.1,2.5-3.1,6.9-0.6,10s6.9,3.1,10,0.6l15-13.1c2.5-2.5,6.9-2.5,9.4,0
	l9.4,8.8c3.8,3.8,9.4,6.3,15,6.3s10.6-1.9,15-6.3l9.4-9.4c2.5-2.5,6.9-2.5,9.4,0l8.8,8.8c3.8,3.8,9.4,6.3,15,6.3s10.6-2.5,15-6.3
	l8.8-8.8c2.5-2.5,6.9-2.5,9.4,0l15,13.1c1.3,1.3,3.1,1.9,4.4,1.9c1.9,0,3.8-0.6,5.6-2.5C194.7,194.3,194.7,189.9,191.6,187.4
	L191.6,187.4z"/>
<path class="st0" d="M194.1,85.5l-25-10.6V43c0-3.1-1.9-5.6-4.4-6.9l-45-17.5v-4.4c0-8-6.3-14.3-14.4-14.3S90.9,6.2,90.9,14.3v4.4
	L45.3,36.8c-3.1,1.3-4.4,3.8-4.4,6.3v31.8L16.6,85.5c-3.8,1.9-5,6.3-2.5,9.4l37.5,60c0.6,1.3,1.9,1.9,3.1,2.5
	c6.9,1.3,12.5,4.4,17.5,9.4l0.6,0.6c1.9,1.9,5.6,1.9,7.5,0l0.6-0.6c6.3-6.3,15-10,24.4-10s18.1,3.8,24.4,10c1.9,1.9,5.6,1.9,7.5,0
	c5-5,11.9-8.8,18.8-10c1.3,0,2.5-1.3,3.8-2.5l37.5-60C199.1,91.8,197.8,87.4,194.1,85.5z M110.3,49.3c-3.1-1.3-6.9-1.3-10,0
	L54.7,68.8V48l50.6-19.3l49.4,19.4v20.6L110.3,49.3z"/>
</svg>
