<?xml version="1.0" encoding="utf-8"?>
<!-- Generator: Adobe Illustrator 22.1.0, SVG Export Plug-In . SVG Version: 6.00 Build 0)  -->
<svg version="1.1" id="图层_1" xmlns="http://www.w3.org/2000/svg" xmlns:xlink="http://www.w3.org/1999/xlink" x="0px" y="0px"
	 viewBox="0 0 210.9 200" style="enable-background:new 0 0 210.9 200;" xml:space="preserve">
<style type="text/css">
	.st0{fill:#FFFFFF;}
</style>
<path class="st0" d="M190.3,84.7v86c0,4.9-4,9.1-9.1,9.1H29.7c-4.9,0-9.1-4-9.1-9.1v-86H0.3v86c0,16.3,13.2,29.3,29.3,29.3h151.5
	c16.3,0,29.3-13.2,29.3-29.3v-86H190.3L190.3,84.7z"/>
<path class="st0" d="M87.4,154.2c8,0,11.5,1.3,15.9,2.7c5.3,1.8,11.8,4,23.6,4c11.8,0,18.3-2.2,23.6-4c4.5-1.6,8-2.7,15.9-2.7v-23.8
	c-11.8,0-18.3,2.2-23.6,4c-4.5,1.6-8,2.7-15.9,2.7s-11.5-1.3-15.9-2.7c-5.3-1.8-11.8-4-23.6-4s-18.3,2.2-23.6,4
	c-4.5,1.6-8,2.7-15.9,2.7v23.9c11.8,0,18.3-2.2,23.6-4C75.9,155.5,79.5,154.2,87.4,154.2z M87.4,116.9c8,0,11.5,1.3,15.9,2.7
	c5.3,1.8,11.8,4,23.6,4c11.8,0,18.3-2.2,23.6-4c4.5-1.6,8-2.7,15.9-2.7V93.1c-11.8,0-18.3,2.2-23.6,4c-4.5,1.6-8,2.7-15.9,2.7
	s-11.5-1.3-15.9-2.7c-5.3-1.8-11.8-4-23.6-4s-18.3,2.2-23.6,4c-4.5,1.6-8,2.7-15.9,2.7v23.8c11.8,0,18.3-2.2,23.6-4
	C75.9,118.2,79.5,116.9,87.4,116.9z M88.5,78H119V64.4h23.8L105.6,0L68.3,64.4h20.3V78z"/>
</svg>
