<?xml version="1.0" encoding="utf-8"?>
<!-- Generator: Adobe Illustrator 22.1.0, SVG Export Plug-In . SVG Version: 6.00 Build 0)  -->
<svg version="1.1" id="图层_1" xmlns="http://www.w3.org/2000/svg" xmlns:xlink="http://www.w3.org/1999/xlink" x="0px" y="0px"
	 viewBox="0 0 210.9 200" style="enable-background:new 0 0 210.9 200;" xml:space="preserve">
<style type="text/css">
	.st0{fill:#FFFFFF;}
</style>
<path class="st0" d="M184.6,0.2H26.1C12.3,0.2,1,11.5,1,25.3v112.5c0,13.8,11.3,25.1,25.1,25.1h158.6c13.8,0,25.1-11.3,25.1-25.1
	V25.3C210.2,11.5,199,0.2,184.6,0.2L184.6,0.2z M195.9,137.8c0,6.1-5.1,10.7-10.7,10.7H26.6c-6.1,0-10.7-5.1-10.7-10.7V25.3
	c0-6.1,5.1-10.7,10.7-10.7h158.6c6.1,0,10.7,5.1,10.7,10.7L195.9,137.8L195.9,137.8z M178,185.4h-39.9v-4.1c0-3.6-2.6-6.1-6.1-6.1
	H74.7c-3.6,0-6.1,2.6-6.1,6.1v4.1H29.1c-4.1,0-7.2,3.1-7.2,7.2c0,4.1,3.1,7.2,7.2,7.2H178c4.1,0,7.2-3.1,7.2-7.2
	C185.1,188.4,182.1,185.4,178,185.4z"/>
<path class="st0" d="M104.8,56.1c-26.8,0-49.5,13-60.5,20.6c-3.5,2-3.5,7.5,0,9.7c11,7.5,33.8,20.6,60.5,20.6s49.5-13,60.5-20.6
	c3.5-2,3.5-7.5,0-9.7C155.2,69.8,131.8,56.1,104.8,56.1z M104.8,103.6c-12.4,0-22.1-9.7-22.1-22.1s9.7-21.9,22.1-21.9
	s22.1,9.7,22.1,22.1S117.2,103.6,104.8,103.6z"/>
<path class="st0" d="M93.9,81.5c0,6.1,5,11,11,11c6.1,0,11-5,11-11s-5-11-11-11C98.8,70.5,93.9,75.4,93.9,81.5z"/>
</svg>
