<?xml version="1.0" encoding="utf-8"?>
<!-- Generator: Adobe Illustrator 22.1.0, SVG Export Plug-In . SVG Version: 6.00 Build 0)  -->
<svg version="1.1" id="图层_1" xmlns="http://www.w3.org/2000/svg" xmlns:xlink="http://www.w3.org/1999/xlink" x="0px" y="0px"
	 viewBox="-3739 981 200 200" style="enable-background:new -3739 981 200 200;" xml:space="preserve">
<g>
	<path d="M-3561.1,1043.2c-0.1,0.5-0.2,1-0.3,1.4c-1.2,4.8-5.4,8-10.4,8h-92.9c-5.7,0-10.3-4.2-10.8-9.8c-0.4-5.6,3.5-10.5,9.2-11.3
		c0.1,0,0.2-0.1,0.3-0.1h95.5c0.1,0,0.2,0.1,0.4,0.1c4.5,0.8,7.4,3.4,8.7,7.8c0.2,0.5,0.3,1.1,0.4,1.6
		C-3561.1,1041.6-3561.1,1042.4-3561.1,1043.2L-3561.1,1043.2z"/>
	<path d="M-3699.2,1031.4c0.4,0.1,0.7,0.2,1.1,0.2c5.5,1.2,9.1,6.4,8.3,12c-0.8,5.4-5.8,9.4-11.3,9c-4.9-0.4-8.9-4-9.7-8.8
		c0-0.2-0.1-0.4-0.1-0.6v-2.3c0-0.2,0.1-0.3,0.1-0.5c0.7-4.4,4-7.9,8.4-8.8c0.3-0.1,0.6-0.1,0.9-0.2
		C-3701.5,1031.4-3699.2,1031.4-3699.2,1031.4z"/>
</g>
<g>
	<path d="M-3561.1,1092c-0.1,0.5-0.2,1-0.3,1.4c-1.2,4.8-5.4,8-10.4,8h-93c-5.6,0-10.1-4.1-10.7-9.7c-0.5-5.3,3.2-10.3,8.7-11.4
		c0.6-0.1,1.3-0.2,2-0.2h92.7c6.1,0,10.4,4.4,11,9.3c0,0.1,0.1,0.2,0.1,0.2C-3561.1,1090.4-3561.1,1091.2-3561.1,1092L-3561.1,1092z
		"/>
	<path d="M-3711,1089.5c0.1-0.3,0.1-0.5,0.2-0.8c1.1-5.5,6.2-9.3,11.5-8.6c5.8,0.7,9.8,5.5,9.5,11.2c-0.3,5.3-4.6,9.6-9.9,10
		c-5.5,0.3-10.3-3.5-11.2-8.8c0-0.2-0.1-0.4-0.1-0.6V1089.5L-3711,1089.5z"/>
</g>
<g>
	<path d="M-3666,1150.2c-0.5-0.1-1-0.2-1.4-0.3c-5-1.3-8.3-5.8-8-11c0.3-5,4.2-9.2,9.2-9.8c0.4-0.1,0.8-0.1,1.3-0.1h93
		c5.1,0,9.3,3.2,10.5,8c0.1,0.5,0.2,1,0.3,1.4v2.3c0,0.1-0.1,0.3-0.1,0.4c-0.6,4.3-3.8,7.7-8,8.8c-0.5,0.1-0.9,0.2-1.4,0.3H-3666
		L-3666,1150.2z"/>
	<path d="M-3711,1137.9c0.1-0.3,0.1-0.5,0.2-0.8c1.1-5.5,6.2-9.3,11.5-8.6c5.8,0.7,9.8,5.5,9.5,11.2c-0.3,5.3-4.6,9.6-9.9,10
		c-5.5,0.3-10.3-3.5-11.2-8.8c0-0.2-0.1-0.4-0.1-0.6C-3711,1140.3-3711,1137.9-3711,1137.9z"/>
</g>
</svg>
