<?xml version="1.0" encoding="utf-8"?>
<!-- Generator: Adobe Illustrator 22.1.0, SVG Export Plug-In . SVG Version: 6.00 Build 0)  -->
<svg version="1.1" id="图层_1" xmlns="http://www.w3.org/2000/svg" xmlns:xlink="http://www.w3.org/1999/xlink" x="0px" y="0px"
	 viewBox="0 0 200.6 200" style="enable-background:new 0 0 200.6 200;" xml:space="preserve">
<style type="text/css">
	.st0{fill:#FFFFFF;}
</style>
<path class="st0" d="M164.1,35.9L164.1,35.9c-16.9-17-39.8-26.5-63.8-26.4c-23.9-0.1-46.9,9.4-63.8,26.4
	C19.5,52.8,10,75.8,10.1,99.7c0,24.1,9.4,46.8,26.4,63.8c16.9,17,39.8,26.5,63.8,26.4c23.9,0.1,46.9-9.4,63.8-26.4
	C199.2,128.3,199.2,71.1,164.1,35.9z M154.2,153.5c-14.2,14.3-33.7,22.4-53.9,22.3c-20.3,0-39.6-7.9-53.8-22.3
	c-14.3-14.2-22.4-33.7-22.3-53.8c0-20.3,7.9-39.6,22.3-53.8c14.2-14.3,33.7-22.4,53.8-22.3c20.4,0,39.5,7.9,53.8,22.3
	C183.9,75.5,183.9,123.9,154.2,153.5z"/>
<path class="st0" d="M139.4,121.9l-31.2-18V54.6c-0.1-4.1-3.7-7.4-7.8-7.3c-3.9,0.1-7.1,3.2-7.3,7.3v52.6c0,2.8,3.5,5.1,5.7,6.4
	c0.7,0.9,2.4,1.8,3.4,2.4l31,18.8c3.6,2.1,7.5,0.8,9.5-2.8C144.8,128.5,142.9,123.9,139.4,121.9z"/>
</svg>
