<?xml version="1.0" encoding="utf-8"?>
<!-- Generator: Adobe Illustrator 22.1.0, SVG Export Plug-In . SVG Version: 6.00 Build 0)  -->
<svg version="1.1" id="图层_1" xmlns="http://www.w3.org/2000/svg" xmlns:xlink="http://www.w3.org/1999/xlink" x="0px" y="0px"
	 viewBox="0 0 200.6 200" style="enable-background:new 0 0 200.6 200;" xml:space="preserve">
<style type="text/css">
	.st0{fill:#FFFFFF;}
</style>
<path class="st0" d="M99.8,156.7c-37,0-69.1-26.2-76.5-62.3c-0.9-4.7,2.1-9.2,6.8-10.3c4.7-1.1,9.2,2.1,10.3,6.8
	c5.8,28,30.8,48.5,59.4,48.5c29.4,0,54.4-20.9,59.7-49.7c0.9-4.7,5.3-7.7,10.2-7c4.7,0.9,7.9,5.5,7,10.2
	C169.9,129.7,137.6,156.7,99.8,156.7z"/>
<path class="st0" d="M99.8,180.9c-4.9,0-8.6-3.9-8.6-8.6V33.6c0-4.9,3.9-8.6,8.6-8.6c4.9,0,8.6,3.9,8.6,8.6v138.7
	C108.5,177,104.7,180.9,99.8,180.9z"/>
<path class="st0" d="M134,71H65.8c-4.9,0-8.6-3.9-8.6-8.6s3.9-8.6,8.6-8.6H134c4.9,0,8.6,3.9,8.6,8.6S138.7,71,134,71z"/>
<path class="st0" d="M108.5,36.3H91.2c-4.9,0-8.6-3.9-8.6-8.6s3.9-8.6,8.6-8.6h17.3c4.9,0,8.6,3.9,8.6,8.6
	C117.1,32.4,113.3,36.3,108.5,36.3z"/>
<path class="st0" d="M20.7,125.5c-1.2,0-2.4-0.3-3.5-0.8c-4.4-2-6.4-7.1-4.4-11.5l11.5-25.6c2-4.4,7.1-6.4,11.5-4.4l25.6,11.5
	c4.4,2,6.4,7.1,4.4,11.5s-7.1,6.4-11.5,4.4l-17.7-7.9l-8,17.6C27.2,123.5,24.1,125.5,20.7,125.5z"/>
<path class="st0" d="M179.7,125.5c-3.3,0-6.5-2-7.9-5.2l-7.9-17.7l-17.7,7.9c-4.4,2-9.5,0-11.5-4.4s0-9.5,4.4-11.5l25.6-11.5
	c4.4-2,9.5,0,11.5,4.4l11.5,25.6c2,4.4,0,9.5-4.4,11.5C182,125.2,180.8,125.5,179.7,125.5z"/>
</svg>
