<?xml version="1.0" encoding="utf-8"?>
<!-- Generator: Adobe Illustrator 22.1.0, SVG Export Plug-In . SVG Version: 6.00 Build 0)  -->
<svg version="1.1" id="图层_1" xmlns="http://www.w3.org/2000/svg" xmlns:xlink="http://www.w3.org/1999/xlink" x="0px" y="0px"
	 viewBox="0 0 200 200" style="enable-background:new 0 0 200 200;" xml:space="preserve">
<style type="text/css">
	.st0{fill:#848484;}
</style>
<path class="st0" d="M137.3,28.9c6.3,0,12.3,2.5,16.9,7c4.5,4.5,7,10.5,7,16.9v0.4c0,2.3,1.3,4.5,3.5,5.4
	c11.6,5.3,18.9,16.2,18.9,28.4c0,8-3.1,15.6-8.8,21.6s-13.4,9.5-21.6,10.2c-3.2,0.3-5.7,3.1-5.4,6.4c0.3,3.1,2.9,5.4,5.9,5.4
	c0.2,0,0.3,0,0.5,0c11.2-1,21.6-5.8,29.2-13.8c7.8-8.1,12.1-18.7,12.1-29.8c0-8.5-2.5-16.6-7.3-23.7c-3.9-5.7-9.2-10.5-15.3-13.9
	c-0.8-8.3-4.4-15.9-10.4-21.9c-6.8-6.8-15.7-10.5-25.3-10.5c-4.9,0-9.7,1.1-14.5,3.4C112.4,10.3,98.6,4.6,84,4.6
	C70.5,4.6,57.7,9.4,47.8,18c-9,7.8-15,18.3-17.3,29.8c-7,3.3-13,8.2-17.5,14.2c-5.5,7.4-8.4,16-8.4,25c0,11.1,4.3,21.7,12.1,29.8
	c7.6,8,18,12.9,29.2,13.8c3.2,0.3,6.2-2.2,6.4-5.4c0.2-3.2-2.2-6.2-5.4-6.4c-8.3-0.7-15.9-4.3-21.6-10.2c-5.6-5.9-8.8-13.5-8.8-21.6
	c0-6.4,2.1-12.6,6-17.9c3.8-5.2,9.3-9.3,15.5-11.6c2-0.8,3.5-2.7,3.7-4.8c1.2-9.9,6.1-19.1,13.8-25.8c7.7-6.8,17.8-10.4,28.3-10.4
	c6.5,0,12.8,1.4,18.6,4.2c5.5,2.6,10.5,6.5,14.6,11.2c1.9,2.3,5.2,2.8,7.7,1.1C129.1,30.3,133.2,28.9,137.3,28.9z"/>
<path class="st0" d="M105.9,160.7V88.1c0-3.3-2.7-6-6-6s-6,2.7-6,6v72.6c-7,2.5-11.9,9.1-11.9,16.9c0,9.8,8,17.9,17.9,17.9
	s17.9-8,17.9-17.9C117.8,169.7,112.9,163.2,105.9,160.7z M100,183.5c-3.2,0-6-2.7-6-6s2.7-6,6-6s6,2.7,6,6S103.2,183.5,100,183.5z"
	/>
<path class="st0" d="M94,70.1c0,3.3,2.7,6,6,6s6-2.7,6-6s-2.7-6-6-6C96.7,64.2,94,66.9,94,70.1z"/>
<path class="st0" d="M64.2,70.1c0,3.3,2.7,6,6,6s6-2.7,6-6s-2.7-6-6-6C66.9,64.1,64.2,66.9,64.2,70.1z"/>
<path class="st0" d="M177.5,135.8c-7.7,0-14.4,5-16.9,11.9h-24.9V88.1c0-3.3-2.7-6-6-6s-6,2.7-6,6v65.6c0,3.3,2.7,6,6,6h30.8
	c2.5,7,9.1,11.9,16.9,11.9c9.8,0,17.9-8,17.9-17.9S187.4,135.8,177.5,135.8z M177.5,159.6c-3.2,0-6-2.7-6-6s2.7-6,6-6s6,2.7,6,6
	S180.8,159.6,177.5,159.6z"/>
<path class="st0" d="M123.8,70.1c0,3.3,2.7,6,6,6s6-2.7,6-6s-2.7-6-6-6S123.8,66.9,123.8,70.1z"/>
<path class="st0" d="M70.1,82.2c-3.3,0-6,2.7-6,6v59.6H39.2c-2.5-7-9.1-11.9-16.9-11.9c-9.8,0-17.9,8-17.9,17.9s8,17.9,17.9,17.9
	c7.7,0,14.4-5,16.9-11.9H70c3.3,0,6-2.7,6-6V88.2C76.1,84.7,73.5,82.2,70.1,82.2z M22.4,159.6c-3.2,0-6-2.7-6-6s2.7-6,6-6s6,2.7,6,6
	S25.8,159.6,22.4,159.6z"/>
</svg>
