<?xml version="1.0" standalone="no"?><!DOCTYPE svg PUBLIC "-//W3C//DTD SVG 1.1//EN" "http://www.w3.org/Graphics/SVG/1.1/DTD/svg11.dtd"><svg t="1524704757838" class="icon" style="" viewBox="0 0 1024 1024" version="1.1" xmlns="http://www.w3.org/2000/svg" p-id="513" xmlns:xlink="http://www.w3.org/1999/xlink" width="200" height="200"><defs><style type="text/css"></style></defs><path d="M935.34208 801.2032h-96.09728v-155.83744h96.09728v17.61792h26.71616V618.6496h-149.52448V827.91936h149.52448v-44.14976h-26.71616v17.4336z" fill="#1296db" p-id="514"></path><path d="M919.68 710.4512h53.4272v-37.53984l50.8928 50.89792-50.8928 50.8928v-37.53984h-53.4272v-26.71104z" fill="#1296db" p-id="515"></path><path d="M185.99936 737.30048a14.98112 14.98112 0 0 1-15.0016-15.0016V382.30016c0-8.29952 6.70208-15.0016 15.0016-15.0016s15.0016 6.70208 15.0016 15.0016v339.99872a14.98112 14.98112 0 0 1-15.0016 15.0016z m108.00128 0a14.98112 14.98112 0 0 1-15.0016-15.0016V382.30016c0-8.29952 6.70208-15.0016 15.0016-15.0016s15.0016 6.70208 15.0016 15.0016v339.99872a14.98112 14.98112 0 0 1-15.0016 15.0016z m108.00128 0a14.98112 14.98112 0 0 1-15.0016-15.0016V382.30016c0-8.29952 6.70208-15.0016 15.0016-15.0016s15.0016 6.70208 15.0016 15.0016v339.99872a14.98624 14.98624 0 0 1-15.0016 15.0016z m107.99616 0a14.98112 14.98112 0 0 1-15.0016-15.0016V382.30016c0-8.29952 6.70208-15.0016 15.0016-15.0016s15.0016 6.70208 15.0016 15.0016v339.99872a14.98112 14.98112 0 0 1-15.0016 15.0016z m108.00128 0a14.98112 14.98112 0 0 1-15.0016-15.0016V382.30016c0-8.29952 6.70208-15.0016 15.0016-15.0016s15.0016 6.70208 15.0016 15.0016v339.99872a14.98112 14.98112 0 0 1-15.0016 15.0016z m108.00128 0a14.98112 14.98112 0 0 1-15.0016-15.0016V382.30016c0-8.29952 6.70208-15.0016 15.0016-15.0016s15.0016 6.70208 15.0016 15.0016v339.99872a14.98112 14.98112 0 0 1-15.0016 15.0016z m44.55936 35.50208H96V331.8016h838.00064v256.33792h49.89952V326.79936c0-24.80128-20.1984-44.99968-44.99968-44.99968H90.99776c-24.80128 0-44.99968 20.1984-44.99968 44.99968v451.00032c0 24.80128 20.1984 44.99968 44.99968 44.99968H770.56v-49.9968z m78.4384-181.72928V382.30016c0-8.29952-6.70208-15.0016-15.0016-15.0016s-15.0016 6.70208-15.0016 15.0016v208.77312h30.0032z" fill="#1296db" p-id="516"></path></svg>